Patient4_TMGait_0pt4_01_right_37_EMG.mot
version=1
nRows=23
nColumns=33
inDegrees=no
endheader
time	1LAddLong	2LGlutMax	3LGlutMed	4LIliopsoas	5LSemiMemb	6LBicFemLong	7LRecFem	8LVastMed	9LVastLat	10LGasMed	11LTibAnt	12lTibPost	13LPeroneusLong	14LSol	15LExtDigLong	16LFlexDigLong	17RAddLong	18RGlutMax	19RGlutMed	20RIliopsoas	21RSemiMemb	22RBicFemLong	23RRecFem	24RVastMed	25RVastLat	26RGasMed	27RTibAnt	28RTibPost	29RPeroneusLong	30RSol	31RExtDigLong	32RFlexDigLong
49.65	0.000305	-0.12177	0.072937	0.006104	0.002136	-0.045319	0.025177	0.003204	0.007477	0.056	0.00824	0.003204	0.007629	0.077515	0.013733	0.034637	-0.002136	-0.022583	-0.007172	0.16144	0.005341	-0.007935	-0.037384	-0.032349	-0.005493	0.000763	-0.32318	-0.000153	0.28671	-0.012817	-0.000916	-0.002289
49.651	0.006104	-0.094757	0.07843	0.007019	0.019531	-0.084991	0.056915	0.004425	0.010529	0.050507	0.024872	0.011139	0.2153	0.15579	-0.031891	0.002136	0.00824	-0.044708	0.021973	0.13077	0.085754	-0.076904	-0.057678	-0.02243	-0.007324	0.001373	-0.19608	-0.00473	0.044403	-0.03479	-0.00061	-0.028992
49.652	-0.001678	-0.10452	0.029755	0.007629	0.023499	-0.024261	0.053558	0.005188	-0.007935	0.13031	0.024567	0.007782	-0.11826	0.072632	-0.045166	-0.13275	0.011749	-0.02243	0.053558	0.070038	-0.018616	-0.044861	-0.048828	-0.081635	-0.015411	0.000458	0.25589	-0.00412	-0.078888	-0.087738	-0.001831	-0.050812
49.653	0.002899	-0.1181	0.040588	0.006104	0.006409	-0.02121	0.038605	0.007477	-0.023193	0.11902	-0.022125	0.010071	-0.19089	-0.06012	0.01709	0.38467	0.006409	-0.040588	0.12955	0.02594	-0.069427	-0.023651	-0.072479	-0.010834	-0.005951	-0.010681	0.22964	-0.00351	0.046692	-0.064087	-0.000458	-0.076294
49.654	-0.001984	-0.067139	0.063934	-0.015869	-0.012207	-0.020447	-0.011749	0.007782	-0.050659	0.38849	-0.004578	0.012512	0.14053	-0.17548	-0.021667	0.25024	0.000458	-0.004578	-0.046234	-0.011139	-0.022583	-0.03952	-0.072937	0.001526	0.005493	-0.015564	0.075378	-0.005341	0.26672	0.001068	-0.003204	-0.096741
49.655	0.005493	-0.055542	0.11444	-0.007935	-0.040131	-0.025177	-0.004425	0.005798	-0.033264	0.24185	0.006409	-0.005188	0.12009	-0.29923	-0.011749	-0.11856	0.007935	-0.063171	-0.074158	-0.044556	0.080261	0.010223	-0.023651	-0.046997	0.00946	-0.014648	-0.001831	-0.006866	0.24536	0.032043	0.00473	-0.097351
49.656	0.008698	-0.071259	0.061188	0.028229	-0.022736	-0.059052	-0.003204	0.003052	-0.020447	-0.43366	0.018768	-0.1442	0.16861	-0.52078	-0.042877	-0.16846	0.026245	-0.040894	0.25742	-0.044403	0.04303	-0.00412	-0.027466	-0.037537	0.003967	-0.013275	-0.022278	-0.005646	0.14542	0.019073	-0.000458	-0.10834
49.657	0.007324	-0.077515	0.041809	0.013123	-0.003052	-0.010986	0.034943	0.004578	-0.081482	-0.34271	0.008087	0.17517	0.2858	-0.522	-0.041504	-0.074921	0.055389	-0.059967	0.43686	-0.027924	0.057373	-0.036011	-0.012665	-0.087128	0.004578	-0.009918	-0.010223	-0.003662	0.076447	0.03891	-0.002899	-0.1181
49.658	0.011749	-0.081635	-0.03067	0.017395	0.03006	-0.013733	0.078735	0.013733	-0.032654	-0.27405	0.017242	0.13534	0.10071	-0.18799	-0.023041	-0.022736	0.050659	-0.021973	-0.15793	0.066376	0.003357	-0.05661	-0.026398	-0.082397	0.00061	-0.012054	0.039063	-0.006561	-0.067902	0.011597	-0.003357	-0.12787
49.659	0.014343	-0.054474	0.058899	0.005646	0.029755	0.034485	-0.011444	0.018616	0.036621	0.12085	0.028229	-0.011139	-0.18188	-0.20233	-0.053101	0.003357	0.037537	-0.019073	-0.40802	0.063782	-0.012054	-0.017548	-0.047302	-0.062103	0.016174	-0.007935	0.18509	-0.000916	-0.10239	0.007477	-0.008392	-0.13351
49.66	0.014954	-0.049896	0.029297	0.001526	0.012207	0.038757	0.007782	-0.005188	0.14267	0.25726	0.01358	-0.016327	-0.224	-0.005341	-0.055389	-0.000458	-0.005188	-0.00946	-0.28214	0.016632	0.027313	0.090332	-0.12543	0.037689	0.038605	-0.009155	0.23392	-0.008545	-0.055237	-0.033417	-0.003204	-0.12482
49.661	0.004425	-0.068665	0.14816	0.010529	0.006561	0.037079	0.039978	0.000153	0.080414	-0.20218	0.018768	-0.046692	-0.045776	0.15457	-0.034485	0.006409	-0.031738	0.021057	0.1648	-0.054169	0.019073	0.053101	-0.10147	0.054474	0.03891	-0.009308	0.23789	-0.001221	-0.005646	-0.030212	-0.001526	-0.095673
49.662	0.008698	-0.060883	0.11932	-0.000305	0.009003	0.018921	0.015106	-0.003204	0.063629	-0.3096	0.010223	0.010834	0.010223	0.30716	-0.002747	0.003052	-0.005035	-0.002747	0.34195	-0.078278	-0.03952	-0.005951	-0.071716	-0.001373	0.016937	-0.007324	0.36224	-0.000458	-0.029449	-0.035706	-0.004578	-0.065002
49.663	0.007172	-0.024872	0.22339	-0.008392	-0.005341	-0.012665	-0.033722	0.016785	0.066376	-0.20966	-0.000763	0.13458	-0.011902	0.35339	0.018311	-0.005798	0.010834	-0.051117	0.20554	-0.041809	-0.12268	0.029907	-0.076294	-0.03006	0.005188	-0.010223	0.31418	-0.002136	-0.070648	-0.001068	-0.003662	-0.042572
49.664	0.005035	-0.075531	0.10696	-0.002136	-0.019836	-0.038605	-0.073853	0.018921	0.065613	0.039978	-0.017395	0.06073	-0.065308	0.28275	0.037384	0.009308	-0.002441	-0.049438	0.06897	-0.003052	-0.20157	0.071106	-0.085754	0.018463	0.018463	-0.012512	0.30899	-0.000916	-0.021973	-0.017242	-0.001526	-0.025787
49.665	0.004272	-0.053253	-0.005493	-0.014954	-0.00885	-0.040131	-0.051727	0.006409	-0.005188	0.02121	0.002441	-0.047455	-0.055389	0.17487	0.019684	0.012665	-0.020142	-0.091858	0.62775	0.017548	-0.31952	0.11307	-0.10361	0.075378	0.027618	-0.005188	0.16174	-0.00061	0.10422	-0.035095	-0.003204	-0.009766
49.666	0.005646	-0.085449	0.030518	-0.004272	0.012512	0.004578	0.006866	0.006561	-0.14389	-0.032959	-0.007324	-0.057678	-0.012665	0.050354	0.020294	0.016785	-0.030975	-0.033722	0.31662	0.11978	-0.36713	0.12985	-0.046844	0.034332	0.03006	-0.006866	-0.33722	-0.000763	0.28885	-0.056305	0.000305	-0.00061
49.667	-0.001831	-0.063171	0.035706	0.017853	0.011444	-0.014801	0.030823	0.002747	-0.15274	-0.019684	0.000153	-0.017853	0.025177	0.039215	0.016785	0.006256	-0.00824	-0.1059	-0.19791	0.13931	-0.054016	0.090179	-0.081787	0.004883	0.016022	-0.006866	-0.36346	-0.001221	0.34256	-0.012512	-0.003204	0.002747
49.668	-0.000153	-0.055389	-0.00351	0.008392	0.027008	-0.000305	0.053711	0.000153	-0.070801	-0.010986	0.011597	0.013733	0.042114	0.044098	0.010223	0.017853	0.001373	-0.073547	-0.3743	0.07782	0.22537	0.032043	-0.082855	-0.002899	0.022583	-0.009155	-0.15686	0.002441	0.026703	0.013123	-0.000916	0.006714
49.669	-0.001984	-0.059204	0.029449	-0.009155	0.037689	0.013428	0.033569	-0.015717	-0.012054	0.012817	-0.006714	0.012207	0.010376	0.025024	0.007019	0.014648	0.019531	-0.031281	-0.005646	-0.006409	0.015869	-0.010071	-0.074158	0.002441	0.023041	-0.004272	-0.019531	-0.002747	-0.4538	0.068359	-0.003204	0.008698
49.67	0.002594	-0.037842	0.10864	0.008087	0.02121	0.015259	0.037537	-0.007935	-0.014954	-0.022583	0.016174	0.006561	-0.004272	0.10361	0.00473	0.015106	-0.014954	0.006561	-0.021973	-0.15579	0.1413	-0.027008	-0.054169	-0.028229	0.005646	-0.009308	0.008087	-0.005188	-0.36163	-0.012665	0.001831	0.014038
49.671	-0.001373	-0.063019	0.009918	0.014191	0.021057	0.029144	0.03006	0.001373	-0.044861	-0.049744	-0.000458	0.00885	-0.010986	0.11047	-0.00473	0.017242	-0.029144	-0.029755	-0.20111	-0.14282	0.076141	-0.068207	-0.026855	0.025787	0.018311	-0.00885	0.009613	-0.000916	-0.000763	-0.018768	-0.004578	0.020447
49.672	0	-0.034943	-0.032959	-0.00351	0.023041	0.023499	0.020142	0.00351	-0.033875	0.008545	0.013123	0.004272	-0.026093	0.070038	-0.00412	0.012665	-0.004272	-0.027924	-0.13947	-0.12558	-0.017548	-0.005035	-0.091095	-0.019684	0.016632	-0.008698	0.037842	-0.001068	0.007629	0.006409	-0.008698	0.023956
